HIERARCHY
ROOT Hips
{
    OFFSET   0.000000   0.000000   0.000000
    CHANNELS 6 Xposition Yposition Zposition Zrotation Xrotation Yrotation
    JOINT Chest
    {
        OFFSET   0.000000   8.007230   0.000000
        CHANNELS 3 Zrotation Xrotation Yrotation
        JOINT Chest2
        {
            OFFSET   0.000000  22.077100   0.000000
            CHANNELS 3 Zrotation Xrotation Yrotation
            JOINT Neck
            {
                OFFSET   0.000000  23.254700   0.000000
                CHANNELS 3 Zrotation Xrotation Yrotation
                JOINT Head
                {
                    OFFSET   0.000010  14.370000   1.956610
                    CHANNELS 3 Zrotation Xrotation Yrotation
                    End Site
                    {
                        OFFSET   0.000000  19.566000   0.000000
                    }
                }
            }
            JOINT LeftCollar
            {
                OFFSET   3.911900  19.017000  -0.467063
                CHANNELS 3 Zrotation Xrotation Yrotation
                JOINT LeftShoulder
                {
                    OFFSET  10.383700   0.000000   0.000000
                    CHANNELS 3 Zrotation Xrotation Yrotation
                    JOINT LeftElbow
                    {
                        OFFSET  26.662100   0.001671   0.000522
                        CHANNELS 3 Zrotation Xrotation Yrotation
                        JOINT LeftWrist
                        {
                            OFFSET  28.869000   0.000037  -0.000114
                            CHANNELS 3 Zrotation Xrotation Yrotation
                            JOINT LeftFinger0
                            {
                                OFFSET   2.044650  -2.323450   3.252850
                                CHANNELS 3 Zrotation Xrotation Yrotation
                                JOINT LeftFinger01
                                {
                                    OFFSET   3.088140   0.000000   0.000000
                                    CHANNELS 3 Zrotation Xrotation Yrotation
                                    JOINT LeftFinger02
                                    {
                                        OFFSET   2.639460   0.000000   0.000000
                                        CHANNELS 3 Zrotation Xrotation Yrotation
                                        End Site
                                        {
                                            OFFSET   2.582190   0.000000   0.000000
                                        }
                                    }
                                }
                            }
                            JOINT LeftFinger1
                            {
                                OFFSET   8.364480   0.000000   3.252850
                                CHANNELS 3 Zrotation Xrotation Yrotation
                                JOINT LeftFinger11
                                {
                                    OFFSET   4.646930   0.000000   0.000000
                                    CHANNELS 3 Zrotation Xrotation Yrotation
                                    JOINT LeftFinger12
                                    {
                                        OFFSET   2.323470   0.000000   0.000000
                                        CHANNELS 3 Zrotation Xrotation Yrotation
                                        End Site
                                        {
                                            OFFSET   2.273050   0.000000   0.000000
                                        }
                                    }
                                }
                            }
                            JOINT LeftFinger2
                            {
                                OFFSET   8.364490   0.000016   1.078090
                                CHANNELS 3 Zrotation Xrotation Yrotation
                                JOINT LeftFinger21
                                {
                                    OFFSET   5.111620   0.000000   0.000000
                                    CHANNELS 3 Zrotation Xrotation Yrotation
                                    JOINT LeftFinger22
                                    {
                                        OFFSET   2.788150   0.000013   0.000000
                                        CHANNELS 3 Zrotation Xrotation Yrotation
                                        End Site
                                        {
                                            OFFSET   2.727660   0.000000   0.000000
                                        }
                                    }
                                }
                            }
                            JOINT LeftFinger3
                            {
                                OFFSET   7.899780   0.000016  -1.078090
                                CHANNELS 3 Zrotation Xrotation Yrotation
                                JOINT LeftFinger31
                                {
                                    OFFSET   4.646930   0.000000   0.000000
                                    CHANNELS 3 Zrotation Xrotation Yrotation
                                    JOINT LeftFinger32
                                    {
                                        OFFSET   2.323470   0.000000   0.000000
                                        CHANNELS 3 Zrotation Xrotation Yrotation
                                        End Site
                                        {
                                            OFFSET   2.273050   0.000000   0.000000
                                        }
                                    }
                                }
                            }
                            JOINT LeftFinger4
                            {
                                OFFSET   7.435080   0.000000  -3.252850
                                CHANNELS 3 Zrotation Xrotation Yrotation
                                JOINT LeftFinger41
                                {
                                    OFFSET   3.717550   0.000000   0.000000
                                    CHANNELS 3 Zrotation Xrotation Yrotation
                                    JOINT LeftFinger42
                                    {
                                        OFFSET   1.858760   0.000000   0.000000
                                        CHANNELS 3 Zrotation Xrotation Yrotation
                                        End Site
                                        {
                                            OFFSET   1.818440   0.000000   0.000000
                                        }
                                    }
                                }
                            }
                        }
                    }
                }
            }
            JOINT RightCollar
            {
                OFFSET  -3.911900  19.017000  -0.467064
                CHANNELS 3 Zrotation Xrotation Yrotation
                JOINT RightShoulder
                {
                    OFFSET -10.383700   0.000000   0.000000
                    CHANNELS 3 Zrotation Xrotation Yrotation
                    JOINT RightElbow
                    {
                        OFFSET -26.662100   0.001633   0.000260
                        CHANNELS 3 Zrotation Xrotation Yrotation
                        JOINT RightWrist
                        {
                            OFFSET -28.869000  -0.000045  -0.000080
                            CHANNELS 3 Zrotation Xrotation Yrotation
                            JOINT RightFinger0
                            {
                                OFFSET  -2.044660  -2.323490   3.252850
                                CHANNELS 3 Zrotation Xrotation Yrotation
                                JOINT RightFinger01
                                {
                                    OFFSET  -3.088140   0.000000   0.000000
                                    CHANNELS 3 Zrotation Xrotation Yrotation
                                    JOINT RightFinger02
                                    {
                                        OFFSET  -2.639450   0.000000   0.000000
                                        CHANNELS 3 Zrotation Xrotation Yrotation
                                        End Site
                                        {
                                            OFFSET  -2.582190   0.000000   0.000000
                                        }
                                    }
                                }
                            }
                            JOINT RightFinger1
                            {
                                OFFSET  -8.364480   0.000000   3.252850
                                CHANNELS 3 Zrotation Xrotation Yrotation
                                JOINT RightFinger11
                                {
                                    OFFSET  -4.646920   0.000000   0.000000
                                    CHANNELS 3 Zrotation Xrotation Yrotation
                                    JOINT RightFinger12
                                    {
                                        OFFSET  -2.323470   0.000000   0.000000
                                        CHANNELS 3 Zrotation Xrotation Yrotation
                                        End Site
                                        {
                                            OFFSET  -2.273050   0.000000   0.000000
                                        }
                                    }
                                }
                            }
                            JOINT RightFinger2
                            {
                                OFFSET  -8.364480   0.000000   1.078090
                                CHANNELS 3 Zrotation Xrotation Yrotation
                                JOINT RightFinger21
                                {
                                    OFFSET  -5.111610   0.000000   0.000000
                                    CHANNELS 3 Zrotation Xrotation Yrotation
                                    JOINT RightFinger22
                                    {
                                        OFFSET  -2.788160   0.000000   0.000000
                                        CHANNELS 3 Zrotation Xrotation Yrotation
                                        End Site
                                        {
                                            OFFSET  -2.727660   0.000000   0.000000
                                        }
                                    }
                                }
                            }
                            JOINT RightFinger3
                            {
                                OFFSET  -7.899780   0.000000  -1.078090
                                CHANNELS 3 Zrotation Xrotation Yrotation
                                JOINT RightFinger31
                                {
                                    OFFSET  -4.646930   0.000000   0.000000
                                    CHANNELS 3 Zrotation Xrotation Yrotation
                                    JOINT RightFinger32
                                    {
                                        OFFSET  -2.323470   0.000000   0.000000
                                        CHANNELS 3 Zrotation Xrotation Yrotation
                                        End Site
                                        {
                                            OFFSET  -2.273050   0.000000   0.000000
                                        }
                                    }
                                }
                            }
                            JOINT RightFinger4
                            {
                                OFFSET  -7.435090   0.000000  -3.252850
                                CHANNELS 3 Zrotation Xrotation Yrotation
                                JOINT RightFinger41
                                {
                                    OFFSET  -3.717550   0.000000   0.000000
                                    CHANNELS 3 Zrotation Xrotation Yrotation
                                    JOINT RightFinger42
                                    {
                                        OFFSET  -1.858760   0.000000   0.000000
                                        CHANNELS 3 Zrotation Xrotation Yrotation
                                        End Site
                                        {
                                            OFFSET  -1.818440   0.000000   0.000000
                                        }
                                    }
                                }
                            }
                        }
                    }
                }
            }
        }
    }
    JOINT LeftHip
    {
        OFFSET   9.782990   0.000000   0.000000
        CHANNELS 3 Zrotation Xrotation Yrotation
        JOINT LeftKnee
        {
            OFFSET  -0.000063 -41.789100   0.001657
            CHANNELS 3 Zrotation Xrotation Yrotation
            JOINT LeftAnkle
            {
                OFFSET   0.000078 -41.133200  -0.000113
                CHANNELS 3 Zrotation Xrotation Yrotation
                JOINT LeftToe
                {
                    OFFSET   0.000000  -6.358970  14.674500
                    CHANNELS 3 Zrotation Xrotation Yrotation
                    End Site
                    {
                        OFFSET   0.000000   0.000000   3.913200
                    }
                }
            }
        }
    }
    JOINT RightHip
    {
        OFFSET  -9.782990   0.000000   0.000000
        CHANNELS 3 Zrotation Xrotation Yrotation
        JOINT RightKnee
        {
            OFFSET   0.000053 -41.789200   0.000277
            CHANNELS 3 Zrotation Xrotation Yrotation
            JOINT RightAnkle
            {
                OFFSET   0.000030 -41.133200  -0.000150
                CHANNELS 3 Zrotation Xrotation Yrotation
                JOINT RightToe
                {
                    OFFSET   0.000000  -6.358960  14.674500
                    CHANNELS 3 Zrotation Xrotation Yrotation
                    End Site
                    {
                        OFFSET   0.000000   0.000000   3.913200
                    }
                }
            }
        }
    }
}
MOTION
Frames: 6
Frame Time:   0.016667
  0.271171  89.460500  -3.196460  -4.135330 -10.404100  -5.520840   0.565204   6.327500   1.628260   0.956853  12.668400   3.223050   0.190621  -0.332817  -0.002543   0.313209  -0.674799   3.760720  -6.380870  -1.516720   3.740800 -71.881000  18.891500  -4.881200  -0.097828  -1.484870 -17.806300  13.204500  -4.322830   3.625660  44.180100  40.599900 -69.591800 -32.363500   0.000000   0.000321 -11.191800   0.001562   0.000000 -33.734000   5.836760  -8.659000 -27.962400   0.008207   0.001565 -19.583500   0.011864   0.000460 -28.652600  -2.661440   4.856240 -40.944200   0.005686  -0.010657 -27.268900  -0.005586   0.001046 -28.688900  -2.663880   4.854910 -43.054900  -0.005136   0.002656 -28.674600  -0.004578   0.001142 -36.787900  -3.321390   4.431680 -55.362900  -0.005455  -0.001032 -36.878800  -0.002548  -0.009948   9.628690   0.740336   7.590300  69.419600   2.306980  -4.788200  -4.950700  -5.046950  17.169200  -7.468470  -1.624040   1.865480 -47.935400  43.440000  80.718900  28.447300   0.000394  -0.000103   9.223640  -0.000077   0.000602  35.259600   7.937820  11.049200  29.484300  -0.001358   0.010731  20.639000  -0.002806   0.012772  28.864100   0.912476   1.654490  43.437500  -0.000479  -0.000077  28.929300  -0.006967   0.000090  28.595400  -0.982656  -1.802370  37.548500   0.003349  -0.000702  25.007300   0.000104  -0.000599  35.181100  -1.182700  -1.677920  52.797500  -0.010805  -0.003195  35.163100  -0.003545   0.009370   1.736270  12.583900   6.955140   0.341094   0.008051   2.735060   1.178330  -2.902890   2.730600  -0.000000   0.000000   0.000000   3.821800   7.669000   4.263380  -3.493810   8.272580 -10.736400   3.590140  -5.160950   2.746210   0.000000   0.000000   0.000000
  0.266398  89.460500  -3.192260  -4.135870 -10.410800  -5.520640   0.565124   6.327230   1.628060   0.956714  12.667900   3.222660   0.202524  -0.328168  -0.002528   0.332759  -0.665437   3.751470  -6.386630  -1.526670   3.726460 -71.900700  18.877100  -4.873130  -0.090419  -1.475170 -17.804000  13.213200  -4.322780   3.634400  44.178800  40.603700 -69.600800 -32.372200   0.000000   0.000318 -11.191800   0.001567   0.000000 -33.743500   5.831300  -8.646300 -27.969400   0.008208   0.001563 -19.583500   0.011866   0.000462 -28.651400  -2.667880   4.870410 -40.950200   0.005688  -0.010660 -27.272900  -0.005587   0.001046 -28.687700  -2.670320   4.869080 -43.060600  -0.005135   0.002656 -28.678400  -0.004577   0.001142 -36.785200  -3.331130   4.444580 -55.364300  -0.005455  -0.001031 -36.877300  -0.002548  -0.009949   9.651460   0.704713   7.592280  69.431300   2.335830  -4.840630  -4.976700  -5.057170  17.204700  -7.393670  -1.617980   1.852330 -47.944500  43.452800  80.779400  28.429500   0.000403  -0.000125   9.214750  -0.000073   0.000602  35.244400   7.976570  11.104800  29.480900  -0.001278   0.010735  20.636600  -0.002728   0.012766  28.840100   0.935487   1.698130  43.421500  -0.000355  -0.000145  28.918600  -0.006948   0.000010  28.595700  -0.959981  -1.760740  37.535300   0.003442  -0.000772  24.998500   0.000182  -0.000687  35.180400  -1.154600  -1.639480  52.794500  -0.010818  -0.003259  35.161200  -0.003504   0.009376   1.741760  12.581000   6.955020   0.340327   0.043526   2.736330   1.177790  -2.925760   2.727270  -0.000000   0.000000   0.000000   3.827090   7.679680   4.260320  -3.499080   8.272680 -10.738800   3.590710  -5.167070   2.745720   0.000000   0.000000   0.000000
  0.258004  89.460500  -3.186160  -4.136840 -10.422400  -5.520520   0.565044   6.326970   1.627870   0.956576  12.667300   3.222270   0.223260  -0.317430  -0.002505   0.366806  -0.643743   3.728460  -6.395540  -1.543960   3.695200 -71.929100  18.862700  -4.865070  -0.080041  -1.465540 -17.794300  13.222100  -4.322730   3.646010  44.179600  40.608200 -69.611100 -32.383600   0.000000   0.000314 -11.191800   0.001572  -0.000000 -33.753400   5.823600  -8.633560 -27.976400   0.008211   0.001561 -19.583500   0.011867   0.000469 -28.650000  -2.676940   4.884590 -40.956200   0.005695  -0.010668 -27.276800  -0.005588   0.001046 -28.686200  -2.679380   4.883260 -43.066300  -0.005135   0.002656 -28.682200  -0.004577   0.001143 -36.780400  -3.340870   4.457470 -55.365700  -0.005455  -0.001029 -36.873600  -0.002547  -0.009949   9.689740   0.639597   7.594230  69.466500   2.364460  -4.951960  -4.997000  -5.124520  17.356500  -7.320040  -1.575520   1.839160 -48.003700  43.473900  80.874100  28.366200   0.000416  -0.000147   9.183060  -0.000059   0.000602  35.208600   8.061560  11.239600  29.456700  -0.001144   0.010743  20.619700  -0.002584   0.012752  28.804700   0.998813   1.816180  43.309400  -0.000147  -0.000259  28.844000  -0.006905  -0.000123  28.592900  -0.879897  -1.613750  37.442900   0.003573  -0.000888  24.936900   0.000312  -0.000834  35.169700  -1.056240  -1.503500  52.774000  -0.010843  -0.003348  35.147500  -0.003414   0.009391   1.749720  12.578100   6.954620   0.339555   0.079001   2.739860   1.177150  -2.948640   2.721970   0.000000   0.000000   0.000000   3.835770   7.698720   4.253960  -3.507590   8.272910 -10.741200   3.591430  -5.176350   2.745260  -0.000000   0.000000  -0.000000
  0.250279  89.460700  -3.182740  -4.137930 -10.432800  -5.521850   0.565733   6.327010   1.632050   0.957458  12.667400   3.230650   0.242184  -0.301963  -0.002496   0.397884  -0.612369   3.695780  -6.401150  -1.558960   3.653840 -71.942800  18.879100  -4.866310  -0.079006  -1.481140 -17.773500  13.219500  -4.311150   3.649010  44.187100  40.613900 -69.608200 -32.385800   0.000000   0.000312 -11.192500   0.001566   0.000000 -33.745800   5.820830  -8.633600 -27.970000   0.008212   0.001563 -19.579000   0.011866   0.000479 -28.649600  -2.680920   4.884400 -40.945200   0.005705  -0.010680 -27.269500  -0.005588   0.001046 -28.685900  -2.683400   4.883050 -43.057200  -0.005136   0.002658 -28.676100  -0.004578   0.001142 -36.774400  -3.336930   4.457390 -55.357900  -0.005457  -0.001023 -36.867300  -0.002547  -0.009949   9.717450   0.577487   7.567450  69.516400   2.317730  -5.078420  -4.951010  -5.258930  17.636100  -7.338410  -1.356110   1.917480 -48.131800  43.494400  80.949900  28.256800   0.000421  -0.000109   9.128370  -0.000025   0.000600  35.100100   8.182740  11.452900  29.384100  -0.001006   0.010750  20.568800  -0.002404   0.012730  28.786200   1.105920   2.013220  42.952500   0.000066  -0.000372  28.606300  -0.006845  -0.000256  28.576700  -0.718042  -1.316940  37.156500   0.003630  -0.001007  24.746100   0.000443  -0.000982  34.985600  -0.858614  -1.230120  52.489900  -0.010873  -0.003384  34.958300  -0.003290   0.009419   1.747870  12.623700   6.953660   0.339636   0.013925   2.746040   1.178900  -2.919030   2.717360  -0.000000   0.000000  -0.000000   3.842220   7.717060   4.245030  -3.514630   8.273430 -10.735000   3.590290  -5.182020   2.747780   0.000000   0.000000   0.000000
  0.242208  89.461100  -3.181220  -4.139900 -10.444200  -5.527430   0.567764   6.327410   1.641390   0.960513  12.668300   3.249250   0.261286  -0.284103  -0.002483   0.429260  -0.576122   3.650620  -6.406160  -1.575440   3.605440 -71.950900  18.914900  -4.872690  -0.083630  -1.515320 -17.746200  13.215300  -4.290940   3.649690  44.194500  40.622600 -69.602800 -32.387100   0.000000   0.000311 -11.193700   0.001555  -0.000000 -33.732500   5.819180  -8.633740 -27.959100   0.008214   0.001566 -19.571400   0.011865   0.000492 -28.649500  -2.682290   4.883280 -40.926000   0.005720  -0.010699 -27.256700  -0.005588   0.001046 -28.685800  -2.684790   4.881900 -43.043000  -0.005139   0.002662 -28.666600  -0.004579   0.001141 -36.767900  -3.332990   4.456940 -55.346000  -0.005460  -0.001016 -36.860500  -0.002547  -0.009947   9.753310   0.504472   7.517570  69.594200   2.169060  -5.258870  -4.899500  -5.501610  18.100400  -7.435990  -1.093450   2.099960 -48.307200  43.506600  80.991600  28.082500   0.000423  -0.000070   9.041280   0.000000   0.000599  34.945400   8.307270  11.682900  29.287500  -0.000922   0.010756  20.501300  -0.002288   0.012707  28.771400   1.234910   2.249760  42.454100   0.000194  -0.000440  28.274400  -0.006781  -0.000335  28.547900  -0.523230  -0.959591  36.741500   0.003649  -0.001079  24.469800   0.000522  -0.001071  34.644300  -0.620377  -0.897706  51.970100  -0.010904  -0.003395  34.612100  -0.003158   0.009447   1.746090  12.669200   6.951850   0.339733  -0.051150   2.753200   1.180760  -2.889420   2.714730  -0.000000   0.000000  -0.000000   3.848880   7.735900   4.236890  -3.520870   8.273830 -10.728800   3.587520  -5.186170   2.755150  -0.000000   0.000000   0.000000
  0.233011  89.461400  -3.181690  -4.143150 -10.456500  -5.539050   0.570502   6.333180   1.655620   0.964311  12.680100   3.277660   0.280204  -0.265753  -0.002455   0.460312  -0.538908   3.585250  -6.411430  -1.595000   3.552900 -71.948300  18.968700  -4.896430  -0.092958  -1.565500 -17.713800  13.212300  -4.267890   3.649990  44.198700  40.631900 -69.601500 -32.393500   0.000000   0.000319 -11.194800   0.001541   0.000000 -33.721300   5.817250  -8.633940 -27.949800   0.008223   0.001570 -19.564900   0.011864   0.000508 -28.649700  -2.681830   4.879830 -40.908400   0.005739  -0.010724 -27.245000  -0.005587   0.001047 -28.686000  -2.684360   4.878440 -43.034300  -0.005141   0.002667 -28.660800  -0.004579   0.001140 -36.763500  -3.333550   4.454290 -55.339600  -0.005462  -0.001010 -36.856200  -0.002548  -0.009945   9.809960   0.412753   7.462990  69.723600   1.903200  -5.528170  -4.919740  -5.961230  18.831100  -7.704660  -0.976016   2.341940 -48.423000  43.381400  80.823200  27.831700   0.000420  -0.000111   8.915870   0.000000   0.000602  34.782300   8.385630  11.891400  29.171500  -0.000978   0.010761  20.420100  -0.002304   0.012693  28.756900   1.358330   2.474550  41.812500   0.000109  -0.000395  27.847000  -0.006719  -0.000282  28.500100  -0.342899  -0.628523  36.157500   0.003260  -0.001032  24.080900   0.000469  -0.001012  34.157500  -0.392817  -0.574119  51.234800  -0.010929  -0.002956  34.122400  -0.003035   0.009465   1.754020  12.650700   6.949370   0.340207   0.022036   2.758680   1.179360  -2.930660   2.718630   0.000000   0.000000   0.000000   3.856670   7.752380   4.235160  -3.525120   8.272820 -10.731700   3.583480  -5.188720   2.768670   0.000000   0.000000   0.000000
